<?xml version="1.0" standalone="no"?>
<!DOCTYPE svg PUBLIC "-//W3C//DTD SVG 20010904//EN"
 "http://www.w3.org/TR/2001/REC-SVG-20010904/DTD/svg10.dtd">
<svg version="1.0" xmlns="http://www.w3.org/2000/svg"
 width="864.000000pt" height="1184.000000pt" viewBox="0 0 864.000000 1184.000000"
 preserveAspectRatio="xMidYMid meet">

<g transform="translate(0.000000,1184.000000) scale(0.100000,-0.100000)"
fill="#000000" stroke="none">
<path d="M4079 9425 c-3 -2 -79 -12 -170 -20 -272 -26 -344 -41 -664 -140 -66
-20 -142 -44 -168 -52 -27 -7 -76 -26 -110 -42 -34 -15 -107 -47 -162 -71 -55
-24 -109 -51 -120 -60 -20 -17 -86 -55 -200 -114 -57 -30 -307 -201 -369 -253
-23 -19 -31 -21 -38 -11 -6 9 -7 6 -3 -8 4 -17 -20 -44 -139 -152 -79 -72
-195 -188 -257 -257 -95 -106 -114 -124 -121 -108 -6 12 -7 9 -3 -10 7 -33
-11 -60 -157 -248 -57 -74 -227 -379 -257 -462 -10 -29 -35 -90 -56 -137 -71
-162 -178 -490 -177 -540 1 -24 -39 -223 -48 -240 -16 -31 -38 -428 -35 -625
5 -247 40 -578 65 -610 4 -5 20 -64 35 -130 56 -248 112 -402 226 -627 38 -75
69 -141 69 -147 0 -31 255 -414 335 -502 27 -30 70 -82 95 -115 50 -66 385
-404 400 -404 5 0 31 -17 58 -37 27 -21 66 -51 88 -68 21 -16 51 -42 66 -56
34 -33 271 -185 353 -226 243 -123 411 -198 545 -243 85 -28 162 -54 170 -57
8 -3 22 -5 30 -5 8 1 69 -12 135 -29 257 -66 381 -85 630 -94 88 -3 170 -8
183 -11 31 -6 395 14 457 26 109 20 271 47 290 48 39 1 391 103 455 132 36 16
92 40 125 55 33 15 89 37 125 51 67 24 300 143 362 185 19 13 82 56 139 94 58
39 116 77 131 85 51 29 272 215 337 284 36 38 107 110 157 160 102 102 274
314 311 385 14 25 49 80 77 121 85 122 246 427 246 468 0 9 10 35 23 57 34 59
83 195 118 325 33 126 31 118 61 275 11 61 24 118 29 127 35 65 54 662 30 885
-20 173 -33 268 -41 283 -4 8 -22 85 -40 170 -31 152 -140 501 -165 530 -12
15 -63 128 -91 201 -28 76 -203 381 -242 423 -51 54 -142 182 -142 199 0 10
-4 17 -8 17 -4 0 -33 30 -64 68 -93 111 -226 253 -266 282 -20 15 -77 66 -127
113 -49 48 -116 106 -148 129 -31 24 -101 76 -154 116 -54 41 -112 80 -130 87
-38 16 -157 84 -230 132 -29 19 -81 47 -115 62 -35 16 -108 49 -163 74 -55 25
-116 48 -135 52 -19 4 -100 29 -180 55 -210 70 -461 128 -565 129 -27 1 -86 6
-130 12 -82 12 -557 24 -566 14z m670 -139 c155 -20 380 -69 536 -116 315 -96
645 -255 909 -437 275 -190 612 -511 797 -758 240 -321 382 -590 515 -980 104
-301 151 -569 169 -950 24 -508 -102 -1090 -340 -1565 -462 -923 -1340 -1588
-2365 -1789 -231 -45 -342 -55 -645 -55 -308 0 -382 7 -660 60 -364 70 -708
198 -1045 389 -94 53 -304 191 -363 239 -330 265 -513 456 -724 759 -124 177
-196 299 -283 480 -206 428 -310 887 -310 1373 0 679 183 1298 555 1874 297
458 783 894 1271 1138 378 189 796 311 1209 352 136 13 628 4 774 -14z"/>
<path d="M4228 9173 l-108 -4 0 -244 0 -245 120 0 120 0 0 35 0 35 -80 0 -80
0 0 74 c0 84 2 86 78 84 50 0 51 0 54 33 3 23 0 24 -65 27 l-68 3 3 67 3 67
78 3 c68 2 77 5 77 22 0 24 -10 51 -19 48 -3 -1 -54 -4 -113 -5z"/>
<path d="M4486 9158 c-2 -7 -12 -89 -21 -183 -9 -93 -20 -196 -25 -228 -5 -40
-3 -60 4 -62 13 -4 197 -25 220 -25 11 0 16 10 16 34 l0 34 -77 8 -78 9 3 50
c5 99 4 99 78 92 l64 -6 0 33 c0 33 0 34 -55 38 -31 3 -60 9 -65 14 -5 5 -6
35 -3 67 l6 59 81 -4 81 -3 3 31 3 32 -78 6 c-43 4 -95 9 -115 12 -27 4 -39 2
-42 -8z"/>
<path d="M3907 9153 c-25 -4 -27 -7 -21 -41 3 -20 13 -90 23 -154 10 -65 15
-118 12 -118 -4 0 -39 66 -79 146 l-73 146 -42 -6 c-23 -4 -42 -8 -43 -9 -2
-3 47 -426 52 -454 3 -18 11 -23 34 -23 16 0 31 4 34 9 3 5 -1 62 -9 127 -24
197 -25 205 -17 200 4 -2 41 -72 82 -155 l75 -151 43 0 c33 0 42 4 42 18 0 15
-56 397 -66 450 -2 12 -8 21 -12 21 -4 -1 -19 -4 -35 -6z"/>
<path d="M4855 9117 c-3 -7 -27 -106 -54 -222 -27 -115 -52 -217 -56 -226 -5
-13 2 -18 31 -24 21 -4 39 -2 43 3 3 6 15 49 25 96 l19 86 33 0 c38 0 74 -29
74 -59 0 -11 -7 -50 -15 -87 -9 -36 -14 -68 -11 -71 2 -3 20 -8 39 -12 l34 -8
17 93 c16 85 17 96 2 125 -15 30 -15 32 9 51 15 12 31 41 41 74 15 51 14 57
-3 91 -21 43 -61 65 -156 86 -51 11 -69 12 -72 4z m141 -102 c21 -21 24 -31
19 -58 -11 -48 -32 -67 -76 -67 -21 0 -41 5 -44 11 -4 6 -2 39 5 75 12 61 13
64 42 64 18 0 39 -10 54 -25z"/>
<path d="M3478 9073 c-10 -2 -18 -10 -18 -16 0 -7 23 -104 50 -217 28 -113 52
-214 55 -226 4 -17 10 -20 36 -16 17 2 33 11 36 18 4 11 -87 406 -104 452 -5
12 -22 14 -55 5z"/>
<path d="M5243 8963 c-27 -75 -133 -392 -133 -397 0 -9 64 -26 71 -19 11 13
154 452 148 457 -3 3 -19 9 -36 12 -29 6 -30 4 -50 -53z"/>
<path d="M3173 8981 c-45 -21 -69 -51 -79 -98 -6 -32 44 -196 93 -301 39 -82
103 -103 190 -61 78 38 90 94 47 215 -30 83 -24 80 -111 43 -34 -14 -41 -22
-36 -36 12 -35 24 -43 45 -32 24 13 32 4 48 -51 13 -46 13 -47 -10 -70 -25
-25 -64 -26 -89 -1 -26 26 -104 267 -96 298 7 30 46 46 80 33 14 -5 25 -15 25
-22 1 -32 17 -42 49 -28 17 7 31 18 31 24 0 26 -43 78 -75 92 -45 18 -61 18
-112 -5z"/>
<path d="M5456 8888 c-13 -29 -58 -124 -100 -211 -42 -87 -76 -162 -76 -166 0
-5 14 -14 31 -20 l31 -10 69 145 c38 80 69 150 69 155 0 6 5 7 11 3 6 -3 8
-17 4 -31 -6 -24 -35 -283 -35 -315 0 -23 69 -46 81 -27 5 8 50 106 100 218
87 193 91 205 73 218 -38 28 -48 17 -109 -124 -33 -76 -61 -130 -63 -120 -2
10 1 71 7 137 16 170 15 175 -14 188 -43 20 -54 14 -79 -40z"/>
<path d="M2865 8846 c-19 -13 -17 -18 48 -147 37 -73 66 -134 64 -135 -2 -3
-111 96 -188 172 l-45 45 -37 -16 c-20 -8 -37 -20 -37 -26 0 -5 47 -107 105
-225 92 -190 107 -214 122 -205 48 27 49 22 -27 175 -40 81 -70 149 -67 153 4
3 37 -26 74 -64 37 -38 94 -94 125 -123 56 -51 59 -52 88 -40 17 7 33 16 35
20 3 5 -23 61 -57 127 -34 65 -83 159 -109 208 -26 50 -53 91 -61 93 -7 1 -22
-4 -33 -12z"/>
<path d="M5890 8713 c-31 -11 -74 -61 -136 -156 -35 -54 -71 -112 -80 -129
-30 -59 -1 -134 67 -169 83 -42 140 -19 206 83 l46 71 -24 18 c-13 10 -39 26
-57 36 -32 17 -34 17 -48 -1 -19 -27 -18 -44 6 -51 11 -3 20 -10 20 -14 0 -13
-44 -73 -61 -84 -24 -15 -68 0 -81 29 -14 31 -4 54 87 193 62 96 68 101 100
101 25 0 39 -6 50 -24 14 -22 15 -28 1 -60 -15 -36 -15 -36 15 -52 17 -8 32
-14 34 -12 12 15 35 71 35 88 0 36 -28 84 -63 106 -34 23 -92 36 -117 27z"/>
<path d="M2465 8610 c-39 -27 -79 -55 -89 -63 -19 -13 -13 -24 114 -213 73
-109 134 -201 136 -203 6 -7 193 123 194 135 0 6 -9 19 -20 29 -19 17 -22 17
-79 -24 -33 -22 -62 -41 -65 -41 -5 0 -86 115 -86 123 0 3 25 20 55 38 30 18
55 36 55 40 0 4 -8 17 -19 30 l-18 23 -50 -32 c-27 -18 -55 -32 -60 -32 -16 0
-76 97 -68 110 3 6 23 19 43 30 69 37 77 46 62 75 -7 14 -18 25 -24 25 -6 0
-43 -22 -81 -50z"/>
<path d="M4060 8544 c-187 -21 -245 -31 -380 -64 -740 -183 -1345 -655 -1694
-1321 -97 -185 -147 -308 -196 -484 -220 -782 -68 -1590 418 -2229 93 -121
301 -334 434 -442 193 -158 467 -316 716 -412 257 -100 497 -152 800 -173 244
-17 587 13 822 71 112 28 355 113 452 158 592 274 1094 805 1323 1402 76 197
126 400 151 605 20 174 15 546 -11 695 -90 531 -331 1015 -690 1389 -404 421
-941 700 -1515 787 -100 15 -545 28 -630 18z m625 -90 c141 -24 278 -55 305
-69 25 -13 141 -49 215 -66 62 -15 425 -198 425 -215 0 -8 6 -14 13 -14 14 0
155 -89 240 -152 77 -56 281 -258 382 -377 160 -189 252 -332 331 -516 26 -60
56 -121 66 -134 45 -58 158 -498 179 -691 27 -257 0 -635 -63 -870 -67 -255
-157 -464 -277 -645 -36 -55 -71 -111 -77 -125 -21 -48 -131 -185 -215 -270
-120 -122 -267 -260 -319 -302 -87 -68 -284 -198 -301 -198 -10 0 -35 -11 -55
-25 -42 -29 -99 -46 -121 -38 -12 5 -14 1 -9 -14 5 -17 -2 -24 -46 -43 -142
-61 -312 -113 -442 -137 -77 -13 -147 -28 -155 -32 -25 -13 -244 -34 -366 -35
-140 -1 -379 12 -470 25 -101 15 -284 58 -314 73 -14 8 -71 26 -126 41 -172
46 -385 148 -552 263 -102 70 -111 78 -94 95 6 6 11 16 11 21 0 6 -7 0 -16
-12 -8 -12 -20 -22 -25 -22 -14 0 -115 77 -202 153 -77 68 -322 335 -383 417
-74 100 -167 252 -179 291 -4 13 -30 69 -57 124 -27 55 -60 127 -74 159 -31
77 -94 298 -100 350 -2 23 -11 82 -19 131 -9 50 -20 124 -26 165 -19 149 5
545 46 744 28 134 95 324 166 472 38 79 69 148 69 153 0 22 131 234 208 336
49 65 186 215 309 338 98 99 245 211 358 272 47 26 98 57 113 70 56 47 342
177 449 204 160 41 191 50 213 59 34 15 112 30 255 52 99 15 165 17 380 14
170 -3 291 -10 350 -20z"/>
<path d="M5535 7940 c-3 -5 -1 -10 4 -10 6 0 11 5 11 10 0 6 -2 10 -4 10 -3 0
-8 -4 -11 -10z"/>
<path d="M4770 7170 c-7 -14 -7 -20 0 -20 5 0 10 -7 10 -15 0 -13 -4 -14 -21
-5 -17 10 -24 7 -45 -16 -17 -18 -20 -25 -9 -20 24 9 37 -2 22 -18 -6 -8 -15
-12 -19 -10 -4 3 -12 -5 -18 -17 -8 -13 -18 -19 -30 -16 -10 2 -24 1 -31 -4
-8 -5 -9 -9 -3 -9 19 0 23 -37 7 -59 -12 -18 -12 -20 1 -15 22 9 25 -7 12 -66
-10 -43 -17 -55 -32 -56 -24 -1 -55 14 -72 35 -8 9 -11 10 -7 4 8 -16 -11 -17
-20 -2 -4 6 -13 8 -20 5 -11 -4 -25 13 -25 30 0 2 15 4 34 4 38 0 52 13 54 53
1 18 -3 27 -13 27 -8 0 -15 6 -15 13 0 8 -4 7 -10 -3 -8 -12 -10 -12 -11 5 0
11 -3 14 -6 8 -2 -7 -12 -13 -22 -13 -9 0 -22 -4 -29 -10 -8 -7 -9 -7 -3 1 12
15 3 39 -15 39 -8 0 -11 -6 -7 -17 5 -12 2 -15 -9 -10 -24 8 -30 -4 -10 -19
13 -10 14 -15 5 -24 -13 -14 -33 -5 -33 14 0 18 -42 29 -52 13 -11 -17 -10
-49 1 -42 16 9 20 -9 5 -23 -10 -10 -14 -10 -14 -1 0 7 -2 10 -5 7 -9 -8 5
-36 21 -42 8 -3 12 -2 9 3 -3 5 0 13 6 17 16 9 30 -17 18 -33 -6 -6 -8 -22 -4
-35 5 -18 4 -20 -4 -8 -9 12 -11 9 -11 -16 0 -60 31 -75 130 -63 29 4 54 30
38 40 -7 4 -7 9 0 13 6 3 18 -1 26 -10 9 -8 16 -11 16 -6 0 5 16 9 35 8 38 -1
41 -6 24 -38 -12 -23 3 -40 28 -31 8 3 13 -2 13 -16 0 -12 -7 -24 -15 -27 -9
-4 -15 -19 -15 -35 0 -40 -47 -132 -63 -123 -7 4 -24 15 -38 25 -14 10 -29 16
-32 12 -4 -3 -13 0 -22 7 -8 6 -42 14 -75 16 -34 2 -66 5 -72 7 -7 1 -14 -6
-16 -16 -2 -13 5 -19 28 -23 17 -4 35 -15 41 -25 5 -11 17 -19 25 -19 25 0
194 -74 248 -108 28 -18 61 -32 75 -32 l25 0 -30 31 c-16 17 -44 39 -61 51
-18 11 -33 25 -33 31 0 7 20 75 44 152 57 179 77 266 80 347 1 38 7 72 15 82
7 9 11 25 8 36 -3 11 -1 17 4 14 5 -3 12 8 15 25 4 17 10 28 15 25 5 -3 9 2 9
11 0 9 -4 13 -10 10 -5 -3 -10 -1 -10 4 0 18 -19 12 -30 -9z m-397 -224 c13
-10 15 -16 7 -21 -7 -4 -22 2 -33 14 -25 24 -4 30 26 7z m67 -30 c-5 -15 -6
-25 -2 -22 4 2 13 -4 20 -15 10 -16 9 -19 -5 -19 -49 1 -73 56 -33 76 30 16
33 13 20 -20z"/>
<path d="M3876 7149 c-167 -55 -347 -170 -469 -298 -49 -51 -61 -59 -77 -51
-29 16 -45 13 -30 -5 10 -12 10 -15 -4 -15 -20 0 -20 -3 4 -49 17 -34 17 -41
5 -57 -22 -29 -18 -34 12 -19 32 17 38 14 24 -13 -6 -11 -8 -22 -5 -25 10 -9
33 4 30 16 -1 7 -1 9 1 5 2 -4 12 -4 21 -1 14 4 14 3 3 -5 -8 -6 -11 -17 -8
-26 4 -9 2 -16 -4 -16 -6 0 -8 -4 -4 -10 3 -5 12 -7 20 -3 8 3 15 0 15 -6 0
-7 9 -6 24 4 26 17 49 12 81 -17 17 -16 18 -20 5 -28 -26 -16 -43 -12 -37 10
7 29 1 25 -17 -10 -8 -17 -10 -28 -5 -25 5 3 6 -1 3 -10 -5 -12 -10 -13 -20
-4 -18 15 -39 6 -59 -25 -13 -19 -14 -29 -5 -45 8 -15 8 -21 0 -21 -6 0 -8 -4
-5 -10 9 -14 -8 -13 -23 2 -13 13 -15 3 -3 -26 7 -17 9 -17 29 9 13 16 28 25
37 22 19 -8 9 -34 -16 -42 -11 -4 -17 -10 -14 -15 3 -5 -1 -11 -7 -13 -10 -4
-9 -8 2 -16 12 -8 12 -13 2 -23 -21 -21 -13 -27 22 -16 30 9 33 14 30 44 -1
21 2 34 10 34 15 0 46 -36 38 -45 -4 -3 1 -3 10 0 18 7 34 -23 19 -38 -6 -6
-5 -14 4 -23 11 -11 10 -20 -6 -50 -22 -44 -16 -57 22 -52 15 3 26 1 23 -4 -3
-4 2 -8 10 -8 9 0 16 7 16 15 0 22 -4 30 -13 27 -5 -1 -6 2 -2 8 4 7 12 7 26
0 25 -14 24 -6 -2 19 -12 11 -29 17 -38 14 -13 -4 -13 -2 2 10 10 8 28 12 40
9 12 -3 19 -1 15 3 -4 5 -4 13 1 19 4 6 11 26 15 45 3 19 14 43 23 53 15 17
15 20 3 28 -8 6 -11 10 -7 10 4 0 3 9 -3 19 -7 13 -7 22 0 26 5 3 10 2 10 -4
0 -12 30 -3 48 16 24 23 120 -3 152 -42 12 -14 10 -20 -17 -41 -33 -25 -83
-102 -83 -127 0 -8 -7 -20 -15 -27 -8 -7 -15 -23 -15 -37 0 -22 1 -23 16 -9 8
9 12 21 8 27 -4 7 -1 10 7 7 8 -3 20 2 27 9 8 8 22 11 31 9 11 -4 29 13 60 55
24 33 76 89 116 126 40 36 78 77 84 90 l11 24 -48 -27 c-26 -15 -59 -36 -74
-46 -36 -25 -46 -23 -98 17 -25 20 -74 55 -110 80 -36 24 -78 55 -95 69 l-30
24 35 37 c54 57 201 150 274 175 74 24 77 27 69 59 -5 20 -10 22 -37 17 -79
-16 -240 -111 -341 -200 -48 -43 -49 -45 -32 -64 26 -29 20 -36 -12 -13 -16
12 -34 21 -39 21 -6 0 -17 6 -24 14 -8 7 -29 21 -48 31 -57 29 -65 42 -49 72
15 28 143 139 219 190 69 46 166 94 255 124 75 25 80 29 83 58 2 17 0 31 -5
30 -4 0 -48 -13 -97 -30z m-426 -539 c0 -5 -5 -10 -11 -10 -5 0 -7 5 -4 10 3
6 8 10 11 10 2 0 4 -4 4 -10z m258 -99 c2 -30 -10 -41 -23 -20 -9 13 3 61 13
55 4 -2 9 -18 10 -35z m-288 -215 c0 -3 -4 -8 -10 -11 -5 -3 -10 -1 -10 4 0 6
5 11 10 11 6 0 10 -2 10 -4z m103 -111 c-3 -9 -8 -14 -10 -11 -3 3 -2 9 2 15
9 16 15 13 8 -4z"/>
<path d="M4817 7093 c-4 -3 -7 -17 -7 -29 0 -18 15 -31 78 -63 131 -69 269
-191 376 -333 29 -39 62 -49 72 -24 14 35 -155 227 -283 323 -63 47 -207 132
-224 133 -3 0 -9 -3 -12 -7z"/>
<path d="M4437 7076 c4 -6 -1 -6 -13 -2 -16 6 -15 4 4 -17 20 -21 27 -23 47
-13 30 14 18 41 -19 41 -13 1 -22 -3 -19 -9z"/>
<path d="M3874 7016 c-138 -57 -245 -126 -368 -237 l-49 -45 27 -18 28 -18 56
54 c107 101 244 185 374 227 44 14 52 24 43 51 -8 26 -15 25 -111 -14z"/>
<path d="M4595 7009 c-4 -6 -5 -12 -2 -15 2 -3 7 2 10 11 7 17 1 20 -8 4z"/>
<path d="M4780 6960 c-14 -26 -13 -40 3 -40 8 0 55 -27 105 -60 91 -61 217
-177 263 -244 24 -36 42 -43 68 -27 34 22 -149 220 -293 315 -107 72 -132 81
-146 56z"/>
<path d="M2000 6919 c0 -6 25 -19 36 -19 2 0 4 6 4 13 0 7 -9 13 -20 13 -11 0
-20 -3 -20 -7z"/>
<path d="M3157 6866 c-4 -10 -1 -13 8 -9 8 3 12 9 9 14 -7 12 -11 11 -17 -5z"/>
<path d="M4119 6868 c0 -2 -2 -11 -4 -20 -3 -16 -1 -16 17 -4 11 8 27 12 34 9
8 -3 14 0 14 6 0 9 -58 17 -61 9z"/>
<path d="M4744 6835 c-4 -14 -5 -27 -3 -29 2 -2 37 -24 78 -50 82 -53 175
-137 216 -196 25 -36 29 -38 53 -27 15 6 29 12 31 13 6 5 -38 57 -107 127 -60
62 -230 187 -252 187 -5 0 -12 -11 -16 -25z"/>
<path d="M4290 6819 c0 -5 -6 -7 -12 -3 -10 5 -10 4 -1 -6 6 -7 16 -9 22 -6
14 9 14 26 1 26 -5 0 -10 -5 -10 -11z"/>
<path d="M6456 6815 c4 -8 8 -15 10 -15 2 0 4 7 4 15 0 8 -4 15 -10 15 -5 0
-7 -7 -4 -15z"/>
<path d="M4239 6784 c0 -2 -1 -17 -1 -34 0 -54 2 -58 30 -63 35 -7 70 24 47
43 -8 7 -13 15 -11 19 9 14 -12 32 -38 35 -14 2 -26 2 -27 0z"/>
<path d="M6318 6743 c7 -3 16 -2 19 1 4 3 -2 6 -13 5 -11 0 -14 -3 -6 -6z"/>
<path d="M6375 6730 c11 -5 27 -9 35 -9 13 -1 13 0 0 9 -8 5 -24 9 -35 9 l-20
0 20 -9z"/>
<path d="M6448 6708 c6 -6 18 -8 28 -6 14 3 12 5 -9 10 -19 3 -25 2 -19 -4z"/>
<path d="M2060 6686 c0 -9 5 -26 10 -36 11 -21 58 -70 66 -70 7 0 -44 90 -62
110 -12 12 -14 12 -14 -4z"/>
<path d="M6500 6691 c0 -5 7 -11 15 -15 8 -3 15 -1 15 3 0 5 -7 11 -15 15 -8
3 -15 1 -15 -3z"/>
<path d="M6550 6660 c0 -12 40 -33 48 -25 4 4 -2 13 -12 21 -23 16 -36 18 -36
4z"/>
<path d="M2005 6625 c-3 -8 -7 -22 -10 -30 -2 -8 -1 -15 4 -15 5 0 11 14 13
30 5 32 1 40 -7 15z"/>
<path d="M3728 6433 c6 -2 9 -10 6 -15 -4 -7 -2 -8 4 -4 18 11 14 26 -5 25
-11 0 -13 -3 -5 -6z"/>
<path d="M3306 6413 c-6 -14 -5 -15 5 -6 7 7 10 15 7 18 -3 3 -9 -2 -12 -12z"/>
<path d="M4220 6413 c-94 -18 -218 -97 -278 -179 -173 -234 -91 -560 174 -691
78 -38 78 -38 204 -38 123 0 127 1 195 34 119 59 222 186 251 309 27 115 12
248 -39 332 -34 57 -127 148 -182 180 -88 50 -221 72 -325 53z m185 -58 c93
-25 141 -54 209 -125 83 -88 111 -160 110 -280 -1 -122 -28 -186 -113 -271
-92 -92 -169 -123 -301 -124 -86 0 -101 3 -163 32 -116 55 -207 173 -239 312
-9 41 -9 68 0 123 28 163 138 281 306 329 77 22 117 23 191 4z"/>
<path d="M4259 6290 c-170 -28 -283 -165 -284 -345 0 -60 5 -80 33 -137 37
-75 78 -113 169 -156 50 -23 71 -27 148 -27 76 0 97 4 139 25 70 36 123 92
159 168 28 58 32 78 32 147 0 132 -58 225 -176 285 -49 25 -73 32 -154 44 -11
2 -41 0 -66 -4z m110 -130 c117 -33 187 -160 146 -266 -35 -93 -106 -143 -201
-144 -70 0 -130 33 -171 94 -28 41 -33 57 -33 107 0 77 17 117 71 162 61 53
119 67 188 47z"/>
<path d="M4966 6405 c-28 -21 -16 -26 30 -13 33 9 36 12 19 19 -27 10 -27 10
-49 -6z"/>
<path d="M3270 6389 c0 -5 5 -7 10 -4 6 3 10 8 10 11 0 2 -4 4 -10 4 -5 0 -10
-5 -10 -11z"/>
<path d="M3441 6267 c-9 -12 -8 -16 3 -20 19 -7 32 11 19 24 -6 6 -14 5 -22
-4z"/>
<path d="M5061 6239 c9 -17 8 -23 -2 -30 -7 -4 -11 -10 -9 -13 3 -2 16 4 30
16 14 11 20 17 14 14 -7 -3 -14 3 -17 14 -3 11 -10 20 -16 20 -9 0 -9 -6 0
-21z"/>
<path d="M5197 6247 c3 -6 1 -7 -5 -3 -6 3 -22 1 -37 -6 -20 -9 -25 -18 -22
-34 3 -18 -2 -24 -22 -30 -14 -4 -29 -7 -33 -6 -17 4 -19 -50 -5 -81 16 -32
17 -60 4 -73 -3 -3 1 -17 10 -30 8 -13 13 -31 9 -39 -3 -8 -1 -15 4 -15 15 0
40 -31 40 -50 0 -30 -77 -37 -143 -13 -56 20 -54 15 -44 108 4 38 -12 147 -24
159 -3 3 -19 -9 -36 -27 l-30 -32 -5 -152 c-4 -118 -9 -157 -21 -177 -17 -25
-23 -77 -10 -89 3 -4 23 32 42 80 l36 88 160 -3 c87 -1 161 -5 163 -7 18 -17
-75 -239 -139 -331 l-28 -41 23 -22 22 -21 50 77 c53 85 107 209 125 290 10
43 16 52 38 56 43 9 46 -6 23 -94 -27 -101 -85 -223 -145 -309 l-46 -65 21
-22 21 -23 44 63 c81 113 148 267 173 395 12 60 14 62 43 62 29 0 30 -1 24
-42 -20 -142 -92 -317 -184 -446 -29 -40 -53 -77 -53 -81 0 -4 9 -16 19 -25
19 -17 21 -16 70 51 75 99 155 270 185 390 31 122 33 160 9 166 -14 4 -12 5 5
6 18 1 22 7 22 31 0 17 -4 30 -9 30 -5 0 -12 11 -15 24 -5 20 -27 35 -46 32
-9 -2 -38 29 -34 35 3 6 -21 16 -36 16 -19 -1 -50 27 -50 44 0 12 4 18 11 13
7 -4 10 -1 7 7 -3 8 -10 13 -16 12 -6 -2 -9 4 -6 11 3 8 -3 23 -13 33 -11 11
-26 29 -35 41 -13 19 -19 21 -42 12 -18 -6 -25 -6 -21 0 3 6 1 10 -6 10 -8 0
-6 7 5 19 23 25 14 40 -24 39 -17 -1 -27 -5 -23 -11z m147 -222 c-4 -8 -10
-13 -14 -10 -5 3 -6 -3 -3 -14 3 -12 -3 -24 -16 -33 -12 -8 -18 -18 -13 -23 4
-4 -3 -2 -15 4 -27 14 -29 24 -8 41 9 7 14 19 11 26 -3 8 0 11 8 8 8 -3 17 -1
21 5 10 17 35 13 29 -4z"/>
<path d="M5014 6225 c-4 -8 -4 -22 0 -30 3 -8 0 -15 -6 -15 -6 0 -8 -3 -5 -6
9 -9 34 13 40 36 6 23 -21 36 -29 15z"/>
<path d="M3470 6210 c0 -5 7 -7 15 -4 8 4 15 8 15 10 0 2 -7 4 -15 4 -8 0 -15
-4 -15 -10z"/>
<path d="M3410 6014 c0 -8 1 -14 3 -15 1 0 25 -3 52 -6 44 -4 48 -3 35 10 -22
21 -90 30 -90 11z"/>
<path d="M3075 6000 c-11 -18 14 -223 40 -320 28 -106 109 -285 138 -305 11
-7 16 -18 12 -24 -3 -6 1 -18 9 -27 9 -9 14 -20 10 -25 -7 -12 19 -7 28 5 3 5
16 3 30 -6 21 -14 28 -14 56 -2 18 7 32 17 32 23 0 12 43 10 52 -3 3 -5 13 -2
24 8 13 14 19 15 25 4 14 -21 11 -28 -12 -28 -18 0 -19 -2 -9 -15 9 -10 9 -15
1 -15 -6 0 -3 -8 7 -18 9 -10 23 -17 30 -14 7 2 18 -1 25 -7 12 -9 23 -13 67
-20 3 -1 -2 -5 -9 -10 -9 -6 -22 -6 -33 0 -14 7 -18 6 -18 -5 0 -8 5 -18 10
-21 6 -3 10 -15 10 -26 0 -16 3 -18 18 -10 11 6 33 6 54 2 31 -7 37 -6 41 10
3 11 10 19 17 19 6 0 8 -4 5 -10 -10 -16 0 -12 25 10 13 11 32 20 42 20 12 0
18 6 16 17 -2 10 4 18 12 19 8 0 23 2 32 2 33 3 50 61 39 131 -1 2 -10 -7 -22
-20 -19 -22 -21 -22 -18 -4 2 11 14 24 26 30 12 5 21 17 20 26 -1 13 -5 15
-17 9 -19 -10 -60 -9 -60 1 0 4 -9 10 -19 14 -10 3 -24 19 -31 35 -7 17 -31
40 -56 55 -24 14 -43 31 -41 38 1 6 -9 13 -23 15 -13 2 -36 13 -50 24 -14 12
-18 18 -10 16 16 -6 130 49 130 62 0 4 7 11 16 14 19 7 44 -10 44 -30 0 -8 13
-32 29 -55 16 -22 32 -53 36 -68 5 -25 49 -61 74 -61 6 0 9 19 7 49 -3 37 -11
60 -34 88 -44 57 -101 165 -122 233 -10 33 -25 67 -34 75 -15 15 -16 14 -16
-7 1 -13 7 -50 15 -83 8 -33 15 -64 15 -70 0 -5 -21 -23 -48 -39 -63 -40 -161
-114 -192 -146 -14 -15 -38 -32 -53 -40 -15 -8 -26 -19 -23 -25 3 -9 -5 -10
-27 -6 -27 6 -37 17 -63 68 -49 100 -62 145 -102 378 -6 32 -12 41 -31 43
l-24 4 7 -88 c10 -140 61 -307 127 -419 l21 -36 -28 -29 c-16 -16 -36 -29 -44
-29 -13 0 -13 2 1 11 14 10 11 20 -27 92 -57 110 -102 265 -115 401 -6 62 -16
113 -22 117 -17 11 -35 10 -42 -2z m320 -540 c-3 -5 -10 -10 -16 -10 -5 0 -9
5 -9 10 0 6 7 10 16 10 8 0 12 -4 9 -10z m128 -67 c-7 -3 -13 -13 -13 -23 0
-23 -30 -36 -30 -12 -1 13 -4 11 -15 -8 -8 -14 -14 -19 -15 -11 0 8 -6 11 -16
7 -9 -3 -12 -2 -9 5 4 6 12 9 19 6 10 -3 48 28 41 35 -2 2 9 4 23 4 15 1 21
-1 15 -3z m21 -128 c-4 -8 -10 -12 -15 -9 -11 6 -2 24 11 24 5 0 7 -7 4 -15z"/>
<path d="M3325 5893 c12 -116 96 -363 122 -363 5 0 18 6 28 14 18 13 18 16
-17 93 -39 84 -62 164 -73 253 -8 57 -17 70 -49 70 -17 0 -18 -6 -11 -67z"/>
<path d="M4515 5455 c-60 -23 -105 -31 -224 -39 -39 -2 -69 -10 -78 -19 -14
-14 -11 -16 28 -21 24 -3 64 -7 88 -9 l43 -2 44 -125 c32 -92 40 -126 31 -132
-32 -20 -295 -1 -369 27 -16 6 -38 -19 -38 -44 0 -21 145 -44 293 -47 l148 -3
30 -40 c16 -23 29 -46 29 -53 0 -33 37 -99 61 -110 23 -10 25 -14 13 -26 -18
-17 -18 -32 0 -32 8 0 22 -7 31 -16 20 -20 24 -17 27 23 1 18 6 29 10 27 4 -3
8 2 8 10 0 9 5 16 11 16 8 0 8 4 0 13 -7 10 -7 17 0 24 15 15 2 51 -22 58 -20
7 -25 40 -9 65 5 8 10 11 10 6 0 -5 11 1 24 13 l24 23 21 -21 c23 -23 51 -18
51 9 0 10 7 23 15 30 8 7 15 19 15 27 0 8 4 12 9 8 5 -3 17 5 25 17 9 12 16
17 16 10 0 -7 5 -10 11 -6 8 4 5 10 -7 17 -11 5 -24 16 -31 24 -7 9 -17 12
-25 7 -22 -14 -38 -13 -38 2 0 8 6 14 13 15 28 2 53 7 71 14 16 7 17 5 11 -16
-4 -13 -4 -21 0 -17 4 4 9 18 10 32 2 18 -1 23 -11 19 -8 -3 -14 0 -14 6 0 6
6 11 13 11 9 0 8 3 -2 9 -7 5 -11 13 -7 19 3 5 -1 12 -9 15 -9 4 -12 1 -8 -9
4 -11 -4 -9 -31 7 -20 11 -36 25 -36 29 0 18 24 22 35 6 11 -15 13 -14 18 6 8
28 0 40 -23 33 -11 -3 -20 0 -24 10 -3 9 -10 14 -15 10 -6 -3 -8 4 -5 17 10
45 9 51 -13 53 -12 1 -20 -2 -17 -7 3 -4 -2 -11 -10 -14 -17 -7 -22 -44 -7
-44 5 0 13 -10 16 -21 6 -17 9 -19 16 -8 7 11 9 11 9 -2 0 -20 -22 -30 -41
-19 -9 6 -25 0 -46 -16 -18 -14 -47 -30 -63 -36 -17 -5 -30 -15 -30 -22 0 -6
-16 -20 -35 -30 -20 -11 -38 -30 -41 -43 -4 -13 -12 -23 -20 -23 -8 0 -11 6
-7 15 3 9 -1 23 -10 33 -14 16 -39 161 -28 163 3 0 26 3 51 5 25 3 64 15 87
26 33 17 48 19 65 11 27 -12 43 1 54 41 5 20 2 26 -9 26 -9 0 -19 -5 -22 -10
-8 -14 -78 -6 -83 9 -5 14 -4 14 -77 -14z m316 -237 c6 -11 4 -18 -6 -22 -24
-9 -43 3 -38 24 6 21 32 20 44 -2z m-153 -101 c-1 -2 3 -11 11 -21 8 -9 11
-19 7 -23 -3 -3 -6 -1 -6 5 0 21 -48 14 -55 -8 -7 -22 -41 -27 -48 -7 -7 21 4
45 23 50 13 3 17 0 13 -17 -3 -21 -3 -21 8 1 6 12 19 24 28 26 17 4 25 1 19
-6z m-107 -30 c-1 -12 -15 -9 -19 4 -3 6 1 10 8 8 6 -3 11 -8 11 -12z"/>
<path d="M3910 5429 c0 -5 5 -7 10 -4 6 3 10 8 10 11 0 2 -4 4 -10 4 -5 0 -10
-5 -10 -11z"/>
<path d="M3222 5309 c-23 -37 -6 -54 24 -24 13 13 13 17 1 29 -11 12 -15 11
-25 -5z"/>
<path d="M3480 5236 c0 -2 7 -9 15 -16 13 -11 14 -10 9 4 -5 14 -24 23 -24 12z"/>
<path d="M3475 5182 c-3 -9 -3 -13 1 -9 4 4 13 2 21 -4 10 -9 13 -7 13 6 0 11
5 15 16 11 8 -3 13 -2 10 3 -9 15 -55 9 -61 -7z"/>
<path d="M3555 5180 c-7 -11 22 -26 32 -16 4 3 -1 6 -11 6 -9 0 -14 5 -11 10
3 6 4 10 1 10 -3 0 -8 -5 -11 -10z"/>
<path d="M4823 5024 c-19 -8 -4 -32 17 -27 25 7 35 33 12 32 -9 0 -22 -3 -29
-5z"/>
<path d="M3991 4998 c-8 -20 -4 -25 20 -35 79 -35 374 -58 481 -38 35 7 35 8
25 36 -7 19 -17 27 -27 25 -81 -23 -291 -13 -421 20 -72 18 -68 18 -78 -8z"/>
<path d="M4684 4982 c-6 -4 -8 -16 -4 -27 6 -17 7 -16 12 8 3 15 5 27 4 27 0
0 -6 -4 -12 -8z"/>
<path d="M4761 4968 c9 -17 13 -18 20 -7 13 21 11 25 -11 26 -17 2 -19 -1 -9
-19z"/>
<path d="M4823 4966 c3 -8 1 -17 -6 -20 -9 -3 -8 -7 2 -14 17 -12 37 3 37 30
0 11 -8 18 -19 18 -13 0 -17 -5 -14 -14z"/>
<path d="M3927 4893 c-5 -13 -8 -26 -4 -29 15 -15 204 -56 309 -66 113 -12
317 -2 335 15 3 4 1 18 -5 32 -10 22 -16 24 -39 18 -16 -5 -102 -7 -193 -7
-148 1 -177 4 -279 31 l-113 29 -11 -23z"/>
<path d="M4706 4788 c3 -5 10 -6 15 -3 13 9 11 12 -6 12 -8 0 -12 -4 -9 -9z"/>
<path d="M5724 4158 c3 -10 2 -18 -2 -18 -4 0 -8 -16 -9 -36 l-1 -36 32 29
c17 15 32 29 34 30 2 1 -1 10 -7 20 -10 17 -10 17 -11 -3 0 -12 -7 -28 -17
-35 -15 -13 -16 -11 -10 11 3 14 1 32 -4 40 -9 13 -10 12 -5 -2z"/>
<path d="M2956 4138 c-9 -5 -48 -8 -86 -6 -72 3 -85 -5 -25 -16 19 -4 35 -12
35 -18 0 -9 3 -9 12 0 7 7 28 12 48 12 20 0 44 6 55 13 17 13 17 14 -2 19 -11
3 -28 1 -37 -4z"/>
<path d="M6273 8249 c-59 -83 -123 -171 -142 -196 l-34 -45 31 -30 30 -31 64
45 c34 24 96 68 136 98 40 29 74 51 76 49 3 -2 -38 -63 -90 -134 -51 -72 -94
-135 -94 -141 0 -6 11 -21 25 -34 31 -30 16 -38 256 137 171 123 176 128 162
149 -8 12 -20 24 -26 27 -7 3 -57 -31 -112 -75 -55 -43 -120 -93 -145 -111
-53 -37 -57 -44 74 138 47 66 86 125 86 131 0 6 -10 20 -23 32 l-23 22 -115
-84 c-113 -84 -169 -121 -169 -113 0 3 45 64 100 137 l101 133 -22 23 c-12 13
-26 24 -30 24 -4 0 -56 -68 -116 -151z"/>
<path d="M2071 8286 l-23 -24 163 -176 c90 -97 166 -176 169 -176 4 0 17 11
30 25 l23 24 -44 48 c-110 121 -284 303 -290 303 -3 0 -16 -11 -28 -24z"/>
<path d="M1860 8069 c-29 -40 -52 0 206 -355 l61 -84 24 26 c23 24 23 26 7 52
-45 70 -45 69 -3 112 l38 39 47 -24 47 -24 22 23 c11 12 21 25 21 29 0 3 -39
27 -87 53 -49 26 -143 78 -209 115 -67 38 -128 69 -136 69 -8 0 -25 -14 -38
-31z m253 -160 c15 -9 16 -12 3 -30 -8 -12 -23 -27 -33 -34 -18 -13 -25 -7
-81 69 -34 46 -62 86 -62 90 0 3 35 -15 77 -40 43 -25 86 -50 96 -55z"/>
<path d="M6730 7933 c-45 -24 -218 -153 -248 -186 -55 -59 -30 -162 50 -207
49 -27 103 -23 153 12 206 144 252 195 240 262 -20 102 -115 160 -195 119z
m102 -80 c18 -16 24 -59 10 -79 -18 -27 -229 -174 -250 -174 -41 0 -62 18 -62
54 0 38 9 47 144 145 102 74 127 82 158 54z"/>
<path d="M1681 7813 c-102 -53 -104 -188 -4 -230 42 -17 94 -13 178 13 78 25
135 3 135 -51 0 -38 -41 -60 -82 -46 -29 11 -35 9 -50 -10 -24 -29 -23 -36 12
-54 69 -36 153 -2 179 71 27 79 -10 152 -90 176 -33 9 -52 8 -124 -10 -104
-27 -117 -27 -145 -4 -47 38 10 106 61 74 15 -10 22 -6 40 20 22 30 22 31 4
44 -10 8 -27 14 -36 14 -10 0 -23 2 -31 5 -7 3 -28 -3 -47 -12z"/>
<path d="M6860 7519 c-253 -138 -233 -123 -215 -159 9 -17 18 -30 20 -30 3 0
46 20 95 45 l90 45 15 -30 c30 -59 22 -76 -60 -122 -41 -24 -75 -49 -75 -56 0
-7 7 -24 16 -37 l16 -25 47 27 c76 43 112 74 126 106 12 29 16 31 58 28 50 -3
78 8 119 47 47 44 47 82 -2 178 -23 46 -48 84 -54 84 -6 0 -94 -46 -196 -101z
m195 -9 c4 -6 11 -25 15 -41 8 -27 5 -35 -20 -60 -37 -38 -82 -39 -115 -3 -14
15 -25 33 -25 40 0 13 103 73 127 74 6 0 15 -5 18 -10z"/>
<path d="M1386 7342 c-34 -67 -37 -62 104 -161 123 -88 152 -114 113 -105 -10
2 -80 18 -157 35 -76 17 -142 27 -146 22 -10 -11 -33 -83 -28 -88 2 -3 49 -25
104 -49 54 -24 151 -67 214 -95 107 -48 116 -50 128 -34 27 37 11 48 -242 158
-32 14 -57 27 -55 30 4 4 141 -23 267 -52 63 -14 75 -14 83 -2 17 27 9 44 -38
73 -72 46 -235 168 -230 173 3 2 63 -23 134 -56 171 -79 178 -81 191 -41 11
30 10 31 -31 50 -52 25 -263 114 -340 145 l-57 24 -14 -27z"/>
<path d="M7190 7220 c-25 -11 -121 -49 -215 -86 -93 -36 -172 -68 -174 -70 -8
-7 22 -64 33 -64 7 0 41 11 75 25 55 23 67 24 98 14 l35 -11 -80 -82 -81 -81
14 -32 c8 -18 16 -33 19 -33 2 0 53 50 113 111 l109 111 108 -17 c59 -9 109
-15 112 -13 2 2 -2 19 -8 36 -14 35 -8 33 -166 53 -51 7 -89 15 -85 19 4 4 49
22 98 40 50 19 91 34 93 35 1 1 -3 16 -9 33 -13 37 -25 38 -89 12z"/>
<path d="M1226 6839 c-80 -63 -74 -184 12 -228 49 -25 253 -81 294 -81 75 0
136 74 125 151 -10 77 -53 105 -228 153 -118 32 -167 33 -203 5z m203 -84 c67
-19 124 -35 126 -35 13 0 35 -35 35 -55 0 -40 -27 -58 -80 -53 -60 6 -230 57
-252 76 -34 29 -11 102 31 102 9 0 72 -16 140 -35z"/>
<path d="M7253 6823 c-40 -23 -61 -51 -103 -140 -43 -90 -86 -116 -124 -74
-27 30 -17 73 21 91 27 13 31 19 26 40 -8 36 -12 40 -38 40 -59 0 -115 -91
-96 -157 22 -76 70 -109 144 -101 65 8 93 32 134 117 20 42 46 86 57 99 22 25
67 29 85 8 21 -25 9 -69 -21 -84 -24 -11 -26 -16 -18 -44 12 -41 14 -42 47
-25 43 22 64 51 70 94 14 109 -91 187 -184 136z"/>
<path d="M7144 6117 l-141 -142 -6 -152 c-17 -397 -141 -817 -341 -1157 -438
-744 -1190 -1231 -2024 -1311 -199 -19 -429 -19 -621 0 -520 52 -1014 261
-1446 610 -104 84 -303 285 -390 395 -328 411 -533 947 -552 1440 l-5 145
-151 152 -152 153 -142 -142 -143 -143 0 -91 c0 -301 81 -720 197 -1024 108
-283 213 -477 402 -744 318 -449 761 -823 1241 -1049 276 -130 433 -185 701
-248 290 -67 441 -83 769 -82 253 1 305 4 460 27 543 81 1038 286 1480 614
418 310 742 693 966 1142 206 413 310 808 334 1269 l10 186 -147 147 c-81 82
-150 148 -153 148 -3 0 -68 -65 -146 -143z m-3870 -2691 c44 -18 81 -37 83
-42 2 -5 -3 -18 -11 -29 -13 -18 -15 -18 -71 2 l-57 21 -14 -34 c-21 -51 -18
-61 31 -80 25 -9 45 -18 45 -20 0 -2 -5 -14 -11 -28 -11 -24 -12 -24 -51 -10
-56 19 -67 18 -78 -11 -26 -69 -26 -72 32 -93 53 -20 68 -41 50 -70 -7 -10
-28 -5 -97 21 -49 19 -91 39 -92 44 -6 17 139 363 151 362 6 0 47 -15 90 -33z
m2226 3 c14 -25 17 -23 -53 -54 -31 -13 -57 -26 -57 -28 0 -12 23 -67 28 -67
3 0 13 7 23 16 23 21 85 20 109 -1 30 -27 60 -101 60 -148 0 -55 -38 -96 -97
-104 -32 -4 -45 0 -71 22 -40 33 -40 50 -2 70 29 15 31 15 40 -10 7 -20 16
-26 33 -23 19 3 22 9 21 49 0 26 -8 58 -17 73 -23 35 -63 35 -79 1 -12 -26
-45 -43 -58 -28 -4 4 -21 47 -38 95 -36 99 -38 95 58 132 81 31 87 31 100 5z
m-1944 -110 c18 -17 24 -33 24 -65 0 -48 -6 -56 -38 -47 -16 4 -22 13 -22 34
0 23 -6 32 -27 40 -22 8 -30 7 -40 -7 -20 -28 -16 -43 27 -99 53 -69 65 -104
50 -150 -22 -65 -96 -92 -165 -60 -37 18 -55 51 -55 100 0 40 6 45 46 34 27
-8 30 -12 26 -43 -4 -31 -1 -36 22 -42 16 -4 32 -1 41 6 26 21 17 61 -25 116
-23 28 -44 68 -47 88 -7 45 12 93 46 112 37 20 106 12 137 -17z m1677 -13 c29
-27 75 -161 84 -241 5 -45 2 -55 -21 -82 -34 -41 -85 -52 -131 -30 -37 18 -55
54 -34 68 22 14 51 10 64 -7 8 -12 18 -14 34 -9 21 6 23 12 18 52 -6 54 -12
61 -35 40 -10 -10 -35 -17 -56 -17 -48 0 -81 35 -96 102 -9 43 -8 56 7 87 31
63 117 83 166 37z m-1460 -35 c48 -10 90 -21 93 -23 2 -3 1 -16 -4 -28 -7 -19
-16 -24 -47 -24 l-39 -1 -30 -155 -31 -155 -29 2 c-16 1 -31 5 -34 8 -5 5 44
280 55 311 2 7 -12 16 -32 20 -20 5 -36 12 -36 17 1 4 1 16 1 27 0 25 17 25
133 1z m1172 -33 c32 -29 54 -104 62 -220 7 -104 -5 -131 -66 -149 -32 -9 -47
-9 -71 1 -35 15 -69 68 -48 74 7 2 22 7 32 10 12 4 24 0 33 -14 30 -43 64 -15
56 46 l-5 41 -38 -14 c-32 -13 -42 -13 -66 -2 -39 19 -64 72 -64 137 0 47 4
58 31 83 40 38 105 41 144 7z m-862 -25 c47 -28 55 -63 42 -190 -17 -166 -38
-190 -162 -179 -43 3 -80 9 -84 14 -4 4 3 92 14 196 l21 189 69 -6 c39 -3 82
-14 100 -24z m531 8 c6 -9 36 -314 36 -364 0 -26 -3 -28 -32 -25 l-33 3 -7 80
c-4 44 -10 108 -14 143 l-6 62 -34 0 c-30 0 -34 3 -34 25 0 18 5 25 20 25 11
0 34 14 52 30 33 31 43 36 52 21z m-346 -363 c-3 -29 -7 -33 -35 -36 -32 -3
-33 -2 -33 32 0 35 1 36 36 36 34 0 35 -1 32 -32z"/>
<path d="M5130 3255 c-24 -29 10 -115 46 -115 31 0 46 23 38 57 -15 64 -55 93
-84 58z"/>
<path d="M4847 3193 c-4 -3 -7 -27 -7 -53 0 -56 29 -92 58 -73 21 13 23 93 3
117 -14 16 -42 21 -54 9z"/>
<path d="M3980 3178 c0 -2 -7 -52 -15 -113 -22 -164 -22 -165 19 -165 18 0 39
7 47 16 7 8 17 63 23 121 10 104 10 106 -13 124 -19 15 -61 27 -61 17z"/>
</g>
</svg>
